<svg width="71" height="86" viewBox="0 0 71 86" fill="none" xmlns="http://www.w3.org/2000/svg">
<g clip-path="url(#clip0_307_3)">
<mask id="mask0_307_3" style="mask-type:luminance" maskUnits="userSpaceOnUse" x="0" y="2" width="69" height="84">
<path d="M39.9049 73.8922C29.2475 70.6992 22.0101 60.8152 22.1733 49.6966V5.65721C22.1733 3.32144 19.5101 1.98481 17.6373 3.38061L1.14261 15.6738C0.423608 16.2096 0 17.0536 0 17.9504V49.6895C0 69.1595 15.9293 85.0959 35.4064 85.0959C50.0159 85.0959 62.6317 76.1272 68.0171 63.4264C62.0427 72.8137 50.5623 77.0851 39.9049 73.8922Z" fill="white"/>
</mask>
<g mask="url(#mask0_307_3)">
<path d="M68.0171 0H0V85.103H68.0171V0Z" fill="url(#paint0_linear_307_3)"/>
<path d="M68.0171 0H0V85.103H68.0171V0Z" fill="url(#paint1_linear_307_3)"/>
</g>
<mask id="mask1_307_3" style="mask-type:luminance" maskUnits="userSpaceOnUse" x="8" y="4" width="54" height="77">
<path d="M61.6947 71.5865C55.3514 75.9005 47.2555 77.3054 39.5711 75.0065C28.417 71.6646 20.8391 61.3194 21.0094 49.697V5.85055C21.0094 4.39045 19.3444 3.55512 18.1739 4.42799L9.63949 10.7925C9.19036 11.1274 8.92578 11.6548 8.92578 12.215V47.2491C8.92578 65.3993 23.7837 80.2572 41.9339 80.2572C50.4839 80.2501 56.2596 78.093 61.6947 71.5865Z" fill="white"/>
</mask>
<g mask="url(#mask1_307_3)">
<path opacity="0.2" d="M61.6947 2.31348H8.92578V80.2501H61.6947V2.31348Z" fill="white"/>
</g>
<mask id="mask2_307_3" style="mask-type:luminance" maskUnits="userSpaceOnUse" x="22" y="1" width="49" height="74">
<path d="M48.6407 49.6966C48.6407 56.9339 42.645 62.9296 35.4076 62.9296C28.1702 62.9296 22.1746 56.9339 22.1746 49.6966C22.0114 60.8222 29.2488 70.6991 39.9061 73.8921C50.5635 77.085 62.044 72.8136 68.0255 63.4334C69.8206 59.2045 70.814 54.564 70.814 49.6966V37.8269C70.814 36.706 70.2845 35.651 69.3857 34.9811L51.4757 21.6331C50.3051 20.7608 48.6407 21.5962 48.6407 23.056V49.6966Z" fill="white"/>
<path d="M48.6406 11.8378C48.6406 12.3922 48.8998 12.9148 49.3412 13.2504L67.9653 27.4105C69.1337 28.2988 70.8139 27.4655 70.8139 25.9978V17.416C70.8139 16.8555 70.5492 16.328 70.0998 15.9931L51.4756 2.11288C50.3051 1.24051 48.6406 2.0759 48.6406 3.53576V11.8378Z" fill="white"/>
</mask>
<g mask="url(#mask2_307_3)">
<path d="M67.4359 -5.32324H24.846C22.8859 -5.32324 21.2969 -3.73423 21.2969 -1.77409V72.7581C21.2969 74.7183 22.8859 76.3073 24.846 76.3073H67.4359C69.396 76.3073 70.985 74.7183 70.985 72.7581V-1.77409C70.985 -3.73423 69.396 -5.32324 67.4359 -5.32324Z" fill="url(#paint2_linear_307_3)"/>
</g>
<mask id="mask3_307_3" style="mask-type:luminance" maskUnits="userSpaceOnUse" x="22" y="49" width="47" height="26">
<path d="M29.341 61.4254C25.105 59.2045 22.1746 54.7485 22.1746 49.6895C22.0114 60.8151 29.2488 70.692 39.9061 73.885C50.5635 77.0779 62.044 72.8065 68.0255 63.4263C63.2218 69.4078 55.8355 72.7213 48.1724 72.324C40.5022 71.9337 33.4989 67.8751 29.341 61.4254Z" fill="white"/>
</mask>
<g mask="url(#mask3_307_3)">
<path d="M68.018 49.6963H22.0039V77.0848H68.018V49.6963Z" fill="url(#paint3_linear_307_3)"/>
</g>
</g>
<defs>
<linearGradient id="paint0_linear_307_3" x1="34.0091" y1="98.9717" x2="34.0091" y2="-32.7476" gradientUnits="userSpaceOnUse">
<stop stop-color="#EC1C24"/>
<stop offset="0.1775" stop-color="#EF3C1F"/>
<stop offset="0.5689" stop-color="#F68F11"/>
<stop offset="1" stop-color="#FFF100"/>
</linearGradient>
<linearGradient id="paint1_linear_307_3" x1="-4.45717" y1="-11.6471" x2="74.37" y2="-6.15984" gradientUnits="userSpaceOnUse">
<stop stop-color="#00E0FF"/>
<stop offset="0.442708" stop-color="#AC64FF"/>
<stop offset="1" stop-color="#FF00C1"/>
</linearGradient>
<linearGradient id="paint2_linear_307_3" x1="46.1427" y1="97.6584" x2="47.3241" y2="-2.95718" gradientUnits="userSpaceOnUse">
<stop stop-color="#4A1877"/>
<stop offset="0.2912" stop-color="#6B2099"/>
<stop offset="0.794291" stop-color="#BE33ED"/>
<stop offset="1" stop-color="#DD75FF"/>
</linearGradient>
<linearGradient id="paint3_linear_307_3" x1="45.0122" y1="97.247" x2="45.0122" y2="-19.9231" gradientUnits="userSpaceOnUse">
<stop stop-color="#4A1877"/>
<stop offset="0.2143" stop-color="#4D197A"/>
<stop offset="0.388" stop-color="#571B84"/>
<stop offset="0.5474" stop-color="#681F95"/>
<stop offset="0.6983" stop-color="#7F24AD"/>
<stop offset="0.8432" stop-color="#9D2BCC"/>
<stop offset="0.9818" stop-color="#C234F2"/>
<stop offset="1" stop-color="#C735F7"/>
</linearGradient>
<clipPath id="clip0_307_3">
<rect width="70.983" height="85.7712" fill="white"/>
</clipPath>
</defs>
</svg>
