<svg width="16" height="16" viewBox="0 0 16 16" fill="none" xmlns="http://www.w3.org/2000/svg">
<mask id="mask0_224_1678" style="mask-type:alpha" maskUnits="userSpaceOnUse" x="0" y="1" width="16" height="14">
<path d="M14.8894 7.37585L15.619 7.83025L14.3238 9.60305H13.7134L12.419 7.83025L13.1478 7.37585L13.619 8.45825V8.00385C13.619 6.50785 13.0366 5.10145 11.9782 4.04385C11.3766 3.44145 10.659 2.99905 9.87818 2.72545L10.1374 1.96865C11.0318 2.28145 11.8542 2.78785 12.5438 3.47825C13.7534 4.68625 14.419 6.29345 14.419 8.00385V8.45825L14.8894 7.37585ZM1.12962 8.63049L0.400024 8.17609L1.69522 6.40329H2.30562L3.60002 8.17609L2.87122 8.63049L2.40002 7.54809V8.00249C2.40002 9.49849 2.98242 10.9049 4.04082 11.9625C4.64242 12.5649 5.36002 13.0065 6.14082 13.2809L5.88162 14.0377C4.98722 13.7241 4.16482 13.2177 3.47522 12.5281C2.26562 11.3201 1.60002 9.71289 1.60002 8.00249V7.54809L1.12962 8.63049ZM1.60002 1.60001H8.80002V6.40001H3.96642L1.60002 4.38321V1.60001ZM2.40002 4.00961L4.28805 5.60001H8.00002V2.40241H2.40002V4.00961ZM7.20002 9.60353H12.0336L14.4 11.6203V14.4027H7.20002V9.60353ZM8.00002 10.4027V13.6003H13.6V11.9931L11.712 10.4027H8.00002Z" fill="currentColor"/>
</mask>
<g mask="url(#mask0_224_1678)">
<path d="M14.8894 7.37585L15.619 7.83025L14.3238 9.60305H13.7134L12.419 7.83025L13.1478 7.37585L13.619 8.45825V8.00385C13.619 6.50785 13.0366 5.10145 11.9782 4.04385C11.3766 3.44145 10.659 2.99905 9.87818 2.72545L10.1374 1.96865C11.0318 2.28145 11.8542 2.78785 12.5438 3.47825C13.7534 4.68625 14.419 6.29345 14.419 8.00385V8.45825L14.8894 7.37585ZM1.12962 8.63049L0.400024 8.17609L1.69522 6.40329H2.30562L3.60002 8.17609L2.87122 8.63049L2.40002 7.54809V8.00249C2.40002 9.49849 2.98242 10.9049 4.04082 11.9625C4.64242 12.5649 5.36002 13.0065 6.14082 13.2809L5.88162 14.0377C4.98722 13.7241 4.16482 13.2177 3.47522 12.5281C2.26562 11.3201 1.60002 9.71289 1.60002 8.00249V7.54809L1.12962 8.63049ZM1.60002 1.60001H8.80002V6.40001H3.96642L1.60002 4.38321V1.60001ZM2.40002 4.00961L4.28805 5.60001H8.00002V2.40241H2.40002V4.00961ZM7.20002 9.60353H12.0336L14.4 11.6203V14.4027H7.20002V9.60353ZM8.00002 10.4027V13.6003H13.6V11.9931L11.712 10.4027H8.00002Z" fill="currentColor"/>
<path d="M25.6 -9.60001H-9.59998V25.6H25.6V-9.60001Z" fill="currentColor"/>
</g>
</svg>
