<svg width="16" height="16" viewBox="0 0 16 16" fill="none" xmlns="http://www.w3.org/2000/svg">
<path d="M6.79051 7.04762C7.15725 7.04762 7.45455 7.3461 7.45455 7.71429V13.3333C7.45455 13.7015 7.15725 14 6.79051 14H2.66403C2.2973 14 2 13.7015 2 13.3333V7.71429C2 7.3461 2.2973 7.04762 2.66403 7.04762H6.79051ZM13.336 10.0952C13.7027 10.0952 14 10.3937 14 10.7619V13.3333C14 13.7015 13.7027 14 13.336 14H9.20949C8.84275 14 8.54545 13.7015 8.54545 13.3333V10.7619C8.54545 10.3937 8.84275 10.0952 9.20949 10.0952H13.336ZM2.85375 7.61905C2.69658 7.61905 2.56917 7.74697 2.56917 7.90476V13.1429C2.56917 13.3007 2.69658 13.4286 2.85375 13.4286H6.60079C6.75796 13.4286 6.88538 13.3007 6.88538 13.1429V7.90476C6.88538 7.74697 6.75796 7.61905 6.60079 7.61905H2.85375ZM9.39921 10.6667C9.24204 10.6667 9.11462 10.7946 9.11462 10.9524V13.1429C9.11462 13.3007 9.24204 13.4286 9.39921 13.4286H13.1462C13.3034 13.4286 13.4308 13.3007 13.4308 13.1429V10.9524C13.4308 10.7946 13.3034 10.6667 13.1462 10.6667H9.39921ZM13.336 2C13.7027 2 14 2.29848 14 2.66667V8.28571C14 8.6539 13.7027 8.95238 13.336 8.95238H9.20949C8.84275 8.95238 8.54545 8.6539 8.54545 8.28571V2.66667C8.54545 2.29848 8.84275 2 9.20949 2H13.336ZM9.39921 2.57143C9.24204 2.57143 9.11462 2.69935 9.11462 2.85714V8.09524C9.11462 8.25303 9.24204 8.38095 9.39921 8.38095H13.1462C13.3034 8.38095 13.4308 8.25303 13.4308 8.09524V2.85714C13.4308 2.69935 13.3034 2.57143 13.1462 2.57143H9.39921ZM6.79051 2C7.15725 2 7.45455 2.29848 7.45455 2.66667V5.2381C7.45455 5.60629 7.15725 5.90476 6.79051 5.90476H2.66403C2.2973 5.90476 2 5.60629 2 5.2381V2.66667C2 2.29848 2.2973 2 2.66403 2H6.79051ZM2.85375 2.57143C2.69658 2.57143 2.56917 2.69935 2.56917 2.85714V5.04762C2.56917 5.20541 2.69658 5.33333 2.85375 5.33333H6.60079C6.75796 5.33333 6.88538 5.20541 6.88538 5.04762V2.85714C6.88538 2.69935 6.75796 2.57143 6.60079 2.57143H2.85375Z" fill="currentColor"/>
</svg>
