<svg viewBox="0 0 16 16" xmlns="http://www.w3.org/2000/svg">
<g clip-path="url(#clip0_2919_8203)">
<path d="M7.98008 12.9834H3.49501C3.21992 12.9834 2.99668 12.7601 2.99668 12.485V3.51493C2.99668 3.23984 3.21995 3.0166 3.49501 3.0166H7.98008C8.25566 3.0166 8.47841 2.79385 8.47841 2.51827C8.47841 2.24269 8.25566 2.0199 7.98008 2.0199H3.49501C2.67076 2.0199 2 2.69068 2 3.51493V12.485C2 13.3093 2.67076 13.98 3.49501 13.98H7.98008C8.25566 13.98 8.47841 13.7573 8.47841 13.4817C8.47841 13.2061 8.25566 12.9834 7.98008 12.9834Z" fill="currentColor"/>
<path d="M13.8516 7.64523L10.8217 4.65519C10.6263 4.46183 10.3104 4.46434 10.117 4.66018C9.92368 4.85602 9.92568 5.17147 10.122 5.36483L12.2873 7.5017H6.48514C6.20957 7.5017 5.98682 7.72445 5.98682 8.00002C5.98682 8.2756 6.20957 8.49837 6.48514 8.49837H12.2873L10.122 10.6352C9.9257 10.8286 9.9242 11.144 10.117 11.3399C10.2147 11.4386 10.3433 11.4884 10.4719 11.4884C10.5984 11.4884 10.725 11.4406 10.8217 11.3449L13.8516 8.35482C13.9463 8.26114 14.0001 8.13355 14.0001 8C14.0001 7.8665 13.9468 7.73942 13.8516 7.64523Z" fill="currentColor"/>
</g>
<defs>
<clipPath id="clip0_2919_8203">
<rect width="12" height="12" fill="white" transform="translate(2 2)"/>
</clipPath>
</defs>
</svg>
