<svg width="16" height="16" viewBox="0 0 16 16" fill="none" xmlns="http://www.w3.org/2000/svg">
<path fill-rule="evenodd" clip-rule="evenodd" d="M11.2 4.80001C11.2 3.03269 9.76726 1.60001 7.99995 1.60001C6.23264 1.60001 4.79995 3.03269 4.79995 4.80001C4.79995 6.56732 6.23264 8.00001 7.99995 8.00001C9.76726 8.00001 11.2 6.56732 11.2 4.80001ZM11.816 14.4H4.17595L3.19995 10.8C4.46151 9.5085 6.19459 8.78639 7.99995 8.80001C9.80568 8.78453 11.5395 9.50694 12.8 10.8L11.816 14.4ZM11.944 11.04C10.8416 10.1075 9.44379 9.59714 7.99996 9.6C6.56163 9.60093 5.17008 10.1111 4.07196 11.04L4.79996 13.6H11.2L11.944 11.04ZM7.99995 2.40001C6.67447 2.40001 5.59995 3.47452 5.59995 4.80001C5.59995 6.12549 6.67447 7.20001 7.99995 7.20001C9.32543 7.20001 10.4 6.12549 10.4 4.80001C10.4 3.47452 9.32543 2.40001 7.99995 2.40001Z" fill="currentColor"/>
<mask id="mask0_224_1692" style="mask-type:luminance" maskUnits="userSpaceOnUse" x="3" y="1" width="10" height="14">
<path fill-rule="evenodd" clip-rule="evenodd" d="M11.2 4.80001C11.2 3.03269 9.76726 1.60001 7.99995 1.60001C6.23264 1.60001 4.79995 3.03269 4.79995 4.80001C4.79995 6.56732 6.23264 8.00001 7.99995 8.00001C9.76726 8.00001 11.2 6.56732 11.2 4.80001ZM11.816 14.4H4.17595L3.19995 10.8C4.46151 9.5085 6.19459 8.78639 7.99995 8.80001C9.80568 8.78453 11.5395 9.50694 12.8 10.8L11.816 14.4ZM11.944 11.04C10.8416 10.1075 9.44379 9.59714 7.99996 9.6C6.56163 9.60093 5.17008 10.1111 4.07196 11.04L4.79996 13.6H11.2L11.944 11.04ZM7.99995 2.40001C6.67447 2.40001 5.59995 3.47452 5.59995 4.80001C5.59995 6.12549 6.67447 7.20001 7.99995 7.20001C9.32543 7.20001 10.4 6.12549 10.4 4.80001C10.4 3.47452 9.32543 2.40001 7.99995 2.40001Z" fill="currentColor"/>
</mask>
<g mask="url(#mask0_224_1692)">
<path fill-rule="evenodd" clip-rule="evenodd" d="M0 0H16V16H0V0Z" fill="currentColor"/>
</g>
</svg>
