<svg width="16" height="16" viewBox="0 0 16 16" fill="none" xmlns="http://www.w3.org/2000/svg">
<mask id="mask0_224_1701" style="mask-type:alpha" maskUnits="userSpaceOnUse" x="1" y="1" width="14" height="14">
<path d="M8.00002 6.40019C7.11762 6.40019 6.40002 7.11779 6.40002 8.00019C6.40002 8.88259 7.11762 9.60019 8.00002 9.60019C8.88242 9.60019 9.60002 8.88259 9.60002 8.00019C9.60002 7.11779 8.88242 6.40019 8.00002 6.40019ZM8.00002 10.4002C6.67682 10.4002 5.60002 9.32339 5.60002 8.00019C5.60002 6.67699 6.67682 5.60019 8.00002 5.60019C9.32322 5.60019 10.4 6.67699 10.4 8.00019C10.4 9.32339 9.32322 10.4002 8.00002 10.4002ZM7.38514 13.6002H8.61474L8.85314 13.1458C9.26594 12.3554 10.1827 11.9754 11.0355 12.2418L11.5251 12.3954L12.3947 11.525L12.2419 11.0354C11.9763 10.1842 12.3563 9.26659 13.1459 8.85299L13.6003 8.61539V7.38499L13.1459 7.14739C12.3563 6.73379 11.9763 5.81619 12.2419 4.96499L12.3947 4.47539L11.5251 3.60499L11.0355 3.75859C10.1819 4.02499 9.26594 3.64339 8.85314 2.85459L8.61474 2.40019H7.38514L7.14674 2.85459C6.73394 3.64419 5.81714 4.02579 4.96514 3.75859L4.47474 3.60499L3.60514 4.47539L3.75794 4.96499C4.02354 5.81619 3.64354 6.73379 2.85394 7.14739L2.40034 7.38499V8.61539L2.85394 8.85299C3.64354 9.26659 4.02354 10.1842 3.75874 11.0354L3.60514 11.525L4.47474 12.3954L4.96434 12.2418C5.81474 11.9754 6.73394 12.3554 7.14674 13.1458L7.38514 13.6002ZM9.09954 14.4002H6.90114L6.43794 13.517C6.20434 13.0698 5.68434 12.8562 5.20354 13.005L4.25154 13.3026L2.69714 11.7482L2.99474 10.797C3.14514 10.3154 2.92994 9.79619 2.48354 9.56179L1.60034 9.09939V6.90099L2.48354 6.43859C2.92994 6.20419 3.14514 5.68499 2.99474 5.20339L2.69714 4.25139L4.25154 2.69779L5.20354 2.99539C5.68514 3.14499 6.20434 2.93059 6.43794 2.48339L6.90114 1.60019H9.09954L9.56194 2.48339C9.79634 2.93059 10.3171 3.14499 10.7971 2.99539L11.7483 2.69779L13.3027 4.25139L13.0051 5.20339C12.8547 5.68499 13.0699 6.20419 13.5171 6.43859L14.4003 6.90099V9.09939L13.5171 9.56179C13.0699 9.79619 12.8547 10.3154 13.0051 10.797L13.3027 11.7482L11.7483 13.3026L10.7963 13.005C10.3147 12.8562 9.79634 13.0698 9.56194 13.517L9.09954 14.4002Z" fill="currentColor"/>
</mask>
<g mask="url(#mask0_224_1701)">
<path d="M8.00002 6.40019C7.11762 6.40019 6.40002 7.11779 6.40002 8.00019C6.40002 8.88259 7.11762 9.60019 8.00002 9.60019C8.88242 9.60019 9.60002 8.88259 9.60002 8.00019C9.60002 7.11779 8.88242 6.40019 8.00002 6.40019ZM8.00002 10.4002C6.67682 10.4002 5.60002 9.32339 5.60002 8.00019C5.60002 6.67699 6.67682 5.60019 8.00002 5.60019C9.32322 5.60019 10.4 6.67699 10.4 8.00019C10.4 9.32339 9.32322 10.4002 8.00002 10.4002ZM7.38514 13.6002H8.61474L8.85314 13.1458C9.26594 12.3554 10.1827 11.9754 11.0355 12.2418L11.5251 12.3954L12.3947 11.525L12.2419 11.0354C11.9763 10.1842 12.3563 9.26659 13.1459 8.85299L13.6003 8.61539V7.38499L13.1459 7.14739C12.3563 6.73379 11.9763 5.81619 12.2419 4.96499L12.3947 4.47539L11.5251 3.60499L11.0355 3.75859C10.1819 4.02499 9.26594 3.64339 8.85314 2.85459L8.61474 2.40019H7.38514L7.14674 2.85459C6.73394 3.64419 5.81714 4.02579 4.96514 3.75859L4.47474 3.60499L3.60514 4.47539L3.75794 4.96499C4.02354 5.81619 3.64354 6.73379 2.85394 7.14739L2.40034 7.38499V8.61539L2.85394 8.85299C3.64354 9.26659 4.02354 10.1842 3.75874 11.0354L3.60514 11.525L4.47474 12.3954L4.96434 12.2418C5.81474 11.9754 6.73394 12.3554 7.14674 13.1458L7.38514 13.6002ZM9.09954 14.4002H6.90114L6.43794 13.517C6.20434 13.0698 5.68434 12.8562 5.20354 13.005L4.25154 13.3026L2.69714 11.7482L2.99474 10.797C3.14514 10.3154 2.92994 9.79619 2.48354 9.56179L1.60034 9.09939V6.90099L2.48354 6.43859C2.92994 6.20419 3.14514 5.68499 2.99474 5.20339L2.69714 4.25139L4.25154 2.69779L5.20354 2.99539C5.68514 3.14499 6.20434 2.93059 6.43794 2.48339L6.90114 1.60019H9.09954L9.56194 2.48339C9.79634 2.93059 10.3171 3.14499 10.7971 2.99539L11.7483 2.69779L13.3027 4.25139L13.0051 5.20339C12.8547 5.68499 13.0699 6.20419 13.5171 6.43859L14.4003 6.90099V9.09939L13.5171 9.56179C13.0699 9.79619 12.8547 10.3154 13.0051 10.797L13.3027 11.7482L11.7483 13.3026L10.7963 13.005C10.3147 12.8562 9.79634 13.0698 9.56194 13.517L9.09954 14.4002Z" fill="currentColor"/>
<path d="M25.6 -9.60001H-9.59998V25.6H25.6V-9.60001Z" fill="currentColor"/>
</g>
</svg>
